<?xml version="1.0" encoding="utf-8"?>
<!-- Generator: Adobe Illustrator 25.4.1, SVG Export Plug-In . SVG Version: 6.00 Build 0)  -->
<svg version="1.1" id="Calque_1" xmlns="http://www.w3.org/2000/svg" xmlns:xlink="http://www.w3.org/1999/xlink" x="0px" y="0px"
	 viewBox="0 0 350 80" style="enable-background:new 0 0 350 80;" xml:space="preserve">
<style type="text/css">
	.st0{fill:none;stroke:#020203;stroke-width:0.5102;stroke-linecap:round;stroke-linejoin:round;stroke-miterlimit:10;}
	.st1{fill-rule:evenodd;clip-rule:evenodd;fill:#14233C;}
	.st2{fill:none;stroke:#AEADAD;stroke-width:0.5102;stroke-linecap:round;stroke-linejoin:round;stroke-miterlimit:10;}
	.st3{fill-rule:evenodd;clip-rule:evenodd;fill:#FFBB00;}
	.st4{fill:none;}
	.st5{fill:#14233C;}
	.st6{fill:#FFBB00;}
</style>
<g id="SPLINE_00000022562779911198696530000007198550259951670709_">
	<rect x="-0.3" y="43.9" class="st0" width="10.3" height="10.3"/>
</g>
<g id="HATCH_00000042733765081848222630000016781544829054152597_">
	<rect x="-0.3" y="43.9" class="st1" width="10.3" height="10.3"/>
</g>
<g id="SPLINE_00000138557172862512752030000010649367697859818627_">
	<polygon class="st0" points="28,30.4 23.4,43.5 -0.7,0.4 11.4,0.4 	"/>
</g>
<g id="HATCH_00000073709306513805127600000011946809944351952291_">
	<polygon class="st1" points="28,30.4 23.4,43.5 -0.7,0.4 11.4,0.4 	"/>
</g>
<g id="SPLINE_00000048501520567841874080000009207467636072535431_">
	<path class="st0" d="M36.3,54.2h11.4V15.3c0-5.6,1.2-10.1,4.6-14.9c-7.9,0-16,5.3-16,14.7L36.3,54.2z"/>
</g>
<g id="HATCH_00000051347818013437878980000011229206993931165090_">
	<path class="st1" d="M36.3,54.2h11.4V15.3c0-5.6,1.2-10.1,4.6-14.9c-7.9,0-16,5.3-16,14.7L36.3,54.2z"/>
</g>
<g id="SPLINE_00000065762377228775695740000013105735936265757109_">
	<rect x="57.7" y="22.2" class="st2" width="10.3" height="10.3"/>
</g>
<g id="HATCH_00000123430643935063213100000018056490493040494516_">
	<rect x="57.7" y="22.2" class="st1" width="10.3" height="10.3"/>
</g>
<g id="SPLINE_00000091699618355150589570000013531924146815291021_">
	<path class="st2" d="M64.5,0.4h12c1.8,0,3.4,1.5,3.4,3.4v8H68.1C68.1,8.1,68.8,3.6,64.5,0.4z"/>
</g>
<g id="HATCH_00000016036691725257292360000004160871665941522859_">
	<path class="st1" d="M64.5,0.4h12c1.8,0,3.4,1.5,3.4,3.4v8H68.1C68.1,8.1,68.8,3.6,64.5,0.4z"/>
</g>
<g id="SPLINE_00000116917585571979501600000014690762424147264640_">
	<rect x="57.7" y="43.9" class="st2" width="22.1" height="10.3"/>
</g>
<g id="HATCH_00000030465556559013421250000008196494281950138808_">
	<rect x="57.7" y="43.9" class="st1" width="22.1" height="10.3"/>
</g>
<g id="SPLINE_00000061472727998697058530000006950028955925214870_">
	<path class="st2" d="M1.4,64.5c2.1,3,21.9,9.1,26.1,10c33.7,7.2,57.3-1.2,84.9-19l5.6,5.4l2.6-26.2l-24,1.8l5.1,6.8
		c-26.1,18.4-38.8,29-72.8,27.1C14.8,69.6,3.3,64.7,1.4,64.5z"/>
</g>
<g id="HATCH_00000101061325408546903490000007166301715139390369_">
	<path class="st3" d="M1.4,64.5c2.1,3,21.9,9.1,26.1,10c33.7,7.2,57.3-1.2,84.9-19l5.6,5.4l2.6-26.2l-24,1.8l5.1,6.8
		c-26.1,18.4-38.8,29-72.8,27.1C14.8,69.6,3.3,64.7,1.4,64.5z"/>
</g>
<rect x="131.6" y="-76" class="st4" width="259.9" height="50"/>
<g>
	<path class="st5" d="M168.4,32.4H162v-27l-9.6,27h-3.3l-9.7-27v27h-5.1V1.5h9.8l7.3,19.9l7.2-19.9h9.9L168.4,32.4L168.4,32.4z"/>
	<path class="st5" d="M185.9,32.9c-3.8,0-6.7-1.2-8.7-3.6s-3-5.2-3-8.4c0-3.4,1.1-6.2,3.3-8.4s5.2-3.4,8.8-3.4
		c3.5,0,6.3,1.1,8.5,3.3s3.3,5,3.3,8.5c0,3.6-1.2,6.5-3.5,8.7S189.4,32.9,185.9,32.9z M186.1,28.7c3.9,0,5.9-2.6,5.9-7.8
		c0-2.3-0.5-4.2-1.4-5.5c-0.9-1.4-2.4-2-4.3-2c-2,0-3.5,0.7-4.5,2.1s-1.5,3.2-1.5,5.6c0,2.5,0.5,4.4,1.5,5.7S184.3,28.7,186.1,28.7z
		"/>
	<path class="st5" d="M206,32.4h-2.6V1.5h5.8v11.2c1.1-1.7,2.2-2.8,3.3-3.4c1.1-0.5,2.4-0.8,3.9-0.8c2.8,0,5.2,1.1,7,3.2
		c1.9,2.1,2.8,5.1,2.8,8.9c0,3.4-0.9,6.3-2.7,8.7s-4.5,3.6-7.9,3.6s-6.1-1.4-8-4.2L206,32.4z M209.2,22.7c0,2,0.5,3.5,1.5,4.5
		s2.3,1.5,3.9,1.5c1.5,0,2.8-0.6,3.9-1.7c1-1.1,1.6-3.3,1.7-6.6c0-2.4-0.5-4.2-1.4-5.5s-2.3-1.9-4-1.9c-1.6,0-2.9,0.6-4,1.7
		c-1,1.1-1.6,2.7-1.6,4.7L209.2,22.7L209.2,22.7z"/>
	<path class="st5" d="M237.4,6.9h-5.8V1.5h5.8V6.9z M237.4,32.4h-5.8V9.6h5.8V32.4z"/>
	<path class="st5" d="M250.1,32.4h-5.8V1.5h5.8V32.4z"/>
	<path class="st5" d="M262.9,6.9h-5.8V1.5h5.8V6.9z M262.9,32.4h-5.8V9.6h5.8V32.4z"/>
	<path class="st5" d="M286.3,25.2l5.3,0.6c-0.7,2.1-2,3.8-4,5.1c-2,1.3-4.4,2-7.4,2c-3.6,0-6.4-1.1-8.6-3.2s-3.3-5-3.3-8.6
		c0-3.5,1.1-6.3,3.3-8.6c2.2-2.3,5.2-3.4,8.9-3.4c3.7,0,6.5,1.1,8.5,3.3s3,5.1,3,8.6v0.6h-17.7c0,1.6,0.2,2.8,0.5,3.7
		c0.3,0.9,1,1.8,2,2.4c1,0.7,2.2,1,3.7,1C283.4,28.9,285.3,27.6,286.3,25.2z M285.9,18.3c0-1.6-0.6-3-1.7-4s-2.5-1.6-4.1-1.6
		s-2.9,0.5-4,1.5s-1.7,2.4-1.9,4.1H285.9z"/>
	<path class="st5" d="M303.1,32.4h-5.8V9.6h5.3V15c0.7-2.1,1.8-3.7,3.1-4.7c1.3-1,2.7-1.5,4-1.5c0.2,0,0.4,0,0.8,0v5.5
		c-3,0-4.9,0.8-5.9,2.5c-1,1.7-1.4,3.3-1.4,4.9v10.7C303.2,32.4,303.1,32.4,303.1,32.4z"/>
</g>
<g>
	<path class="st5" d="M154.3,72.3h-20.4V42H154v4.5h-14.5v8.2h11.7v4.4h-11.7v8.5h14.7L154.3,72.3L154.3,72.3z"/>
	<path class="st6" d="M176.4,72.3h-6l-4.9-8.2l-5.4,8.2h-4.5l7.7-11.5l-6.7-10.9h6l3.8,6.6l4.3-6.6h4.4l-6.5,9.7L176.4,72.3z"/>
	<path class="st5" d="M184.9,79.8h-5.3v-30h5v3.9c1.6-2.9,4-4.4,7.1-4.4c2.6,0,4.6,1.1,6.1,3.2c1.5,2.2,2.3,4.9,2.3,8.3
		c0,3.2-0.7,5.9-2.2,8.3s-3.6,3.5-6.5,3.5c-3,0-5.1-1.2-6.5-3.6L184.9,79.8L184.9,79.8z M184.9,63.1c0,1.6,0.5,3,1.5,4
		c1,1.1,2.1,1.6,3.3,1.6c1.7,0,2.9-0.7,3.7-2.1s1.2-3.2,1.2-5.4c0-2.3-0.4-4.1-1.2-5.6c-0.8-1.4-1.9-2.1-3.5-2.1
		c-1.4,0-2.6,0.6-3.5,1.8c-1,1.2-1.5,2.7-1.5,4.6V63.1z"/>
	<path class="st5" d="M210.1,72.3h-5.2V49.9h4.7v5.3c0.7-2.1,1.6-3.6,2.8-4.6s2.4-1.4,3.6-1.4c0.2,0,0.4,0,0.7,0v5.4
		c-2.7,0-4.4,0.8-5.3,2.5c-0.9,1.6-1.3,3.2-1.3,4.8V72.3z"/>
	<path class="st5" d="M235.2,65.1l4.7,0.6c-0.6,2-1.8,3.7-3.6,5s-4,2-6.7,2c-3.2,0-5.8-1-7.8-3.1s-2.9-4.9-2.9-8.5
		c0-3.4,1-6.2,3-8.4s4.6-3.3,8-3.3c3.3,0,5.9,1.1,7.7,3.3s2.7,5,2.7,8.4v0.6h-15.9c0,1.5,0.1,2.7,0.4,3.7c0.3,0.9,0.9,1.7,1.8,2.4
		c0.9,0.7,2,1,3.3,1C232.5,68.8,234.3,67.6,235.2,65.1z M234.9,58.4c0-1.6-0.5-2.9-1.5-3.9s-2.2-1.5-3.7-1.5c-1.4,0-2.6,0.5-3.6,1.4
		c-1,1-1.5,2.3-1.7,4H234.9z"/>
	<path class="st5" d="M242.3,67.1l4.9-0.9c0.7,1.8,2.4,2.7,5,2.7c3.2,0,4.9-0.9,4.9-2.8c0-0.6-0.3-1.1-0.8-1.5s-1.1-0.6-1.8-0.8
		l-4.2-0.8c-4.7-0.9-7-3.1-7-6.6c0-2,0.7-3.7,2.2-5c1.5-1.4,3.7-2.1,6.6-2.1c4.9,0,7.9,1.7,9,5.2l-4.7,0.9c-0.5-1.7-1.9-2.5-4.2-2.5
		c-2.8,0-4.2,0.8-4.2,2.5c0,1.2,1.1,2,3.4,2.4l5,1c3.9,0.8,5.8,2.9,5.8,6.4c0,2.5-1,4.3-3,5.5s-4.4,1.8-7.1,1.8
		c-2.4,0-4.5-0.5-6.3-1.4S242.8,69,242.3,67.1z"/>
	<path class="st5" d="M263.6,67.1l4.9-0.9c0.7,1.8,2.4,2.7,5,2.7c3.2,0,4.9-0.9,4.9-2.8c0-0.6-0.3-1.1-0.8-1.5s-1.1-0.6-1.8-0.8
		l-4.2-0.8c-4.7-0.9-7-3.1-7-6.6c0-2,0.7-3.7,2.2-5c1.5-1.4,3.7-2.1,6.6-2.1c4.9,0,7.9,1.7,9,5.2l-4.7,0.9c-0.5-1.7-1.9-2.5-4.2-2.5
		c-2.8,0-4.2,0.8-4.2,2.5c0,1.2,1.1,2,3.4,2.4l5,1c3.9,0.8,5.8,2.9,5.8,6.4c0,2.5-1,4.3-3,5.5s-4.4,1.8-7.1,1.8
		c-2.4,0-4.5-0.5-6.3-1.4C265.3,70.4,264.2,69,263.6,67.1z"/>
</g>
</svg>
