<?xml version="1.0" encoding="utf-8"?>
<!-- Generator: Adobe Illustrator 25.2.0, SVG Export Plug-In . SVG Version: 6.00 Build 0)  -->
<svg version="1.1" id="Calque_1" xmlns="http://www.w3.org/2000/svg" xmlns:xlink="http://www.w3.org/1999/xlink" x="0px" y="0px"
	 viewBox="0 0 350 80" style="enable-background:new 0 0 350 80;" xml:space="preserve">
<style type="text/css">
	.st0{fill:none;stroke:#020203;stroke-width:0.5102;stroke-linecap:round;stroke-linejoin:round;stroke-miterlimit:10;}
	.st1{fill-rule:evenodd;clip-rule:evenodd;fill:#FFFFFF;}
	.st2{fill-rule:evenodd;clip-rule:evenodd;fill:#FFFFFF;stroke:#FFFFFF;stroke-miterlimit:10;}
	.st3{fill:none;stroke:#AEADAD;stroke-width:0.5102;stroke-linecap:round;stroke-linejoin:round;stroke-miterlimit:10;}
	.st4{fill-rule:evenodd;clip-rule:evenodd;fill:#AEAE99;}
	.st5{fill:#FFFFFF;}
	.st6{fill:#ADAD98;}
</style>
<g id="SPLINE_00000022562779911198696530000007198550259951670709_">
	<rect x="-0.3" y="43.9" class="st0" width="10.3" height="10.3"/>
</g>
<g id="HATCH_00000042733765081848222630000016781544829054152597_">
	<rect x="-0.3" y="43.9" class="st1" width="10.3" height="10.3"/>
</g>
<g id="SPLINE_00000138557172862512752030000010649367697859818627_">
	<polygon class="st0" points="28,30.4 23.4,43.5 -0.7,0.4 11.4,0.4 	"/>
</g>
<g id="HATCH_00000073709306513805127600000011946809944351952291_">
	<polygon class="st2" points="28,30.4 23.4,43.5 -0.7,0.4 11.4,0.4 	"/>
</g>
<g id="SPLINE_00000048501520567841874080000009207467636072535431_">
	<path class="st0" d="M36.3,54.2h11.4V15.3c0-5.6,1.2-10.1,4.6-14.9c-7.9,0-16,5.3-16,14.7L36.3,54.2z"/>
</g>
<g id="HATCH_00000051347818013437878980000011229206993931165090_">
	<path class="st1" d="M36.3,54.2h11.4V15.3c0-5.6,1.2-10.1,4.6-14.9c-7.9,0-16,5.3-16,14.7L36.3,54.2z"/>
</g>
<g id="SPLINE_00000065762377228775695740000013105735936265757109_">
	<rect x="57.7" y="22.2" class="st3" width="10.3" height="10.3"/>
</g>
<g id="HATCH_00000123430643935063213100000018056490493040494516_">
	<rect x="57.7" y="22.2" class="st1" width="10.3" height="10.3"/>
</g>
<g id="SPLINE_00000091699618355150589570000013531924146815291021_">
	<path class="st3" d="M64.5,0.4h12c1.8,0,3.4,1.5,3.4,3.4v8H68.1C68.1,8.1,68.8,3.6,64.5,0.4z"/>
</g>
<g id="HATCH_00000016036691725257292360000004160871665941522859_">
	<path class="st1" d="M64.5,0.4h12c1.8,0,3.4,1.5,3.4,3.4v8H68.1C68.1,8.1,68.8,3.6,64.5,0.4z"/>
</g>
<g id="SPLINE_00000116917585571979501600000014690762424147264640_">
	<rect x="57.7" y="43.9" class="st3" width="22.1" height="10.3"/>
</g>
<g id="HATCH_00000030465556559013421250000008196494281950138808_">
	<rect x="57.7" y="43.9" class="st1" width="22.1" height="10.3"/>
</g>
<g id="SPLINE_00000061472727998697058530000006950028955925214870_">
	<path class="st3" d="M1.4,64.5c2.1,3,21.9,9.1,26.1,10c33.7,7.2,57.3-1.2,84.9-19l5.6,5.4l2.6-26.2l-24,1.8l5.1,6.8
		c-26.1,18.4-38.8,29-72.8,27.1C14.8,69.6,3.3,64.7,1.4,64.5z"/>
</g>
<g id="HATCH_00000101061325408546903490000007166301715139390369_">
	<path class="st4" d="M1.4,64.5c2.1,3,21.9,9.1,26.1,10c33.7,7.2,57.3-1.2,84.9-19l5.6,5.4l2.6-26.2l-24,1.8l5.1,6.8
		c-26.1,18.4-38.8,29-72.8,27.1C14.8,69.6,3.3,64.7,1.4,64.5z"/>
</g>
<g>
	<path class="st5" d="M175.5,6v33.4H166V15.5l-6.2,23.9h-6.5l-6.4-23.9v23.9h-7.7V6h13.4l4.8,17.7L162,6H175.5z"/>
	<path class="st5" d="M193.1,39.9c-4.1,0-7.4-1.3-9.8-3.9c-2.4-2.6-3.6-5.6-3.6-9c0-3.7,1.3-6.8,3.8-9.3c2.5-2.5,5.8-3.7,9.9-3.7
		c4.1,0,7.4,1.2,9.9,3.7c2.5,2.4,3.7,5.5,3.7,9.2c0,3.7-1.3,6.8-3.8,9.3C200.6,38.7,197.3,39.9,193.1,39.9z M193.3,34
		c1.5,0,2.4-0.8,2.8-2.4c0.3-1.6,0.5-3.2,0.5-4.9c0-2.3-0.2-4-0.7-5c-0.5-1-1.3-1.5-2.5-1.5c-1.1,0-1.9,0.5-2.5,1.6
		c-0.5,1.1-0.8,2.8-0.8,5.2c0,2.9,0.3,4.7,0.8,5.7C191.4,33.5,192.2,34,193.3,34z"/>
	<path class="st5" d="M216.3,39.4h-5.5V6h9.6v11.5c1.3-2.3,3.5-3.5,6.4-3.5c2.1,0,3.8,0.5,5.2,1.6c1.4,1.1,2.5,2.6,3.2,4.6
		c0.7,2,1.1,4.1,1.1,6.3c0,4-0.9,7.2-2.7,9.7c-1.8,2.5-4.5,3.7-8,3.7c-3.5,0-6.2-1.3-8-3.9C217,36.9,216.6,38.1,216.3,39.4z
		 M220.4,30.1c0,2.4,0.9,3.7,2.8,3.7c1,0,1.8-0.4,2.4-1.3c0.5-0.9,0.8-2.7,0.8-5.5c0-3-0.3-4.9-0.9-5.7c-0.6-0.8-1.4-1.2-2.3-1.2
		c-0.7,0-1.4,0.3-1.9,0.8c-0.6,0.6-0.9,1.4-0.9,2.4V30.1z"/>
	<path class="st5" d="M249.9,4.9v7.7h-9.8V4.9H249.9z M249.9,14.5v24.9h-9.8V14.5H249.9z"/>
	<path class="st5" d="M264.7,6v33.4h-9.6V6H264.7z"/>
	<path class="st5" d="M279.6,4.9v7.7h-9.8V4.9H279.6z M279.6,14.5v24.9h-9.8V14.5H279.6z"/>
	<path class="st5" d="M301.1,30.5l9.1,0.6c-0.5,2.4-1.9,4.5-4.1,6.3c-2.2,1.7-5.2,2.6-9,2.6c-4.2,0-7.5-1.2-10-3.6
		c-2.5-2.4-3.7-5.4-3.7-9c0-3.7,1.2-6.9,3.7-9.4c2.5-2.6,5.7-3.8,9.9-3.8c4,0,7.2,1.2,9.7,3.6c2.5,2.4,3.7,5.7,3.7,9.9
		c0,0.3,0,0.8,0,1.4h-16.7c0,1.6,0.3,2.7,0.8,3.5c0.5,0.8,1.5,1.1,3,1.1C299.5,33.5,300.8,32.5,301.1,30.5z M300.5,24
		c0-1.7-0.4-2.8-1-3.4c-0.7-0.6-1.5-0.9-2.4-0.9c-2.3,0-3.5,1.4-3.5,4.3H300.5z"/>
	<path class="st5" d="M323.4,39.4h-9.3V14.5h8.1v5.1c0.9-3.7,3.1-5.6,6.5-5.6c0.3,0,0.8,0,1.4,0.1v8.7c-0.7-0.2-1.3-0.2-1.8-0.2
		c-3.2,0-4.8,1.8-4.8,5.4V39.4z"/>
</g>
<g>
	<path class="st5" d="M156.7,64.9v5.6h-17.6V47.2h17.6v5.4h-10.5v3.4h8.5v5.2h-8.5v3.8H156.7z"/>
	<path class="st6" d="M177.2,70.5h-7.7l-3.2-5.6l-3.4,5.6h-5.5l6.1-9.2l-5.4-8.2h7.6l1.8,3.2c0.1,0.1,0.2,0.3,0.3,0.5
		c0.1,0.1,0.1,0.2,0.2,0.4c0.1-0.2,0.3-0.5,0.5-0.8c0-0.1,0.1-0.2,0.2-0.4l1.8-3.1h5.6l-5.1,7.9L177.2,70.5z"/>
	<path class="st5" d="M185.6,76h-6.8V53.1h6.3v2.5c0.9-1.9,2.5-2.8,4.9-2.8c2.1,0,3.7,0.8,4.9,2.4c1.2,1.6,1.8,3.8,1.8,6.6
		c0,2.8-0.6,5-1.8,6.6c-1.2,1.6-2.8,2.5-4.8,2.5c-1.9,0-3.4-0.7-4.4-2.2V76z M185.6,64.1c0,0.8,0.2,1.4,0.5,1.8
		c0.4,0.4,0.8,0.6,1.3,0.6c0.8,0,1.4-0.4,1.7-1.1c0.3-0.8,0.5-1.9,0.5-3.5c0-1.8-0.2-3.1-0.5-3.8c-0.4-0.7-0.9-1.1-1.6-1.1
		c-0.4,0-0.8,0.2-1.3,0.5c-0.4,0.3-0.6,0.9-0.6,1.6V64.1z"/>
	<path class="st5" d="M205.8,70.5h-6.5V53.1h5.7v3.6c0.7-2.6,2.2-3.9,4.5-3.9c0.2,0,0.6,0,1,0.1v6.1c-0.5-0.1-0.9-0.2-1.3-0.2
		c-2.3,0-3.4,1.3-3.4,3.8V70.5z"/>
	<path class="st5" d="M224.1,64.3l6.4,0.4c-0.4,1.7-1.3,3.2-2.9,4.4c-1.5,1.2-3.6,1.8-6.3,1.8c-2.9,0-5.3-0.8-7-2.5
		s-2.6-3.8-2.6-6.3c0-2.6,0.9-4.8,2.6-6.6c1.7-1.8,4-2.7,6.9-2.7c2.8,0,5,0.8,6.7,2.5c1.7,1.7,2.6,4,2.6,6.9c0,0.2,0,0.6,0,1h-11.6
		c0,1.1,0.2,1.9,0.6,2.4c0.4,0.5,1.1,0.8,2.1,0.8C223,66.4,223.9,65.7,224.1,64.3z M223.7,59.8c0-1.2-0.2-2-0.7-2.4
		c-0.5-0.4-1-0.6-1.7-0.6c-1.6,0-2.4,1-2.4,3H223.7z"/>
	<path class="st5" d="M231.6,65.6l5.4-0.7c0.3,1.3,1.5,1.9,3.7,1.9c1.8,0,2.7-0.3,2.7-1c0-0.3-0.2-0.5-0.5-0.7s-1.2-0.3-2.4-0.5
		c-3.5-0.5-5.7-1.3-6.6-2.3c-0.9-1-1.3-2.2-1.3-3.5c0-1.8,0.7-3.2,2.2-4.3c1.5-1.1,3.4-1.7,5.8-1.7c4.2,0,6.9,1.5,8.1,4.6l-5.2,1
		c-0.5-1-1.5-1.5-3-1.5c-0.7,0-1.3,0.1-1.6,0.3c-0.4,0.2-0.5,0.4-0.5,0.6c0,0.6,0.5,0.9,1.6,1c2.9,0.3,4.8,0.6,5.8,1
		c1,0.3,1.9,0.9,2.6,1.8c0.7,0.9,1.1,1.9,1.1,3.2c0,1.9-0.8,3.4-2.4,4.5c-1.6,1.1-3.8,1.7-6.6,1.7C235.7,70.9,232.7,69.1,231.6,65.6
		z"/>
	<path class="st5" d="M250.2,65.6l5.4-0.7c0.3,1.3,1.5,1.9,3.7,1.9c1.8,0,2.7-0.3,2.7-1c0-0.3-0.2-0.5-0.5-0.7s-1.2-0.3-2.4-0.5
		c-3.5-0.5-5.7-1.3-6.6-2.3c-0.9-1-1.3-2.2-1.3-3.5c0-1.8,0.7-3.2,2.2-4.3c1.5-1.1,3.4-1.7,5.8-1.7c4.2,0,6.9,1.5,8.1,4.6l-5.2,1
		c-0.5-1-1.5-1.5-3-1.5c-0.7,0-1.3,0.1-1.6,0.3c-0.4,0.2-0.5,0.4-0.5,0.6c0,0.6,0.5,0.9,1.6,1c2.9,0.3,4.8,0.6,5.8,1
		c1,0.3,1.9,0.9,2.6,1.8c0.7,0.9,1.1,1.9,1.1,3.2c0,1.9-0.8,3.4-2.4,4.5c-1.6,1.1-3.8,1.7-6.6,1.7C254.2,70.9,251.3,69.1,250.2,65.6
		z"/>
</g>
</svg>
