<?xml version="1.0" encoding="utf-8"?>
<!-- Generator: Adobe Illustrator 25.2.0, SVG Export Plug-In . SVG Version: 6.00 Build 0)  -->
<svg version="1.1" id="Calque_1" xmlns="http://www.w3.org/2000/svg" xmlns:xlink="http://www.w3.org/1999/xlink" x="0px" y="0px"
	 viewBox="0 0 195 65" style="enable-background:new 0 0 195 65;" xml:space="preserve">
<style type="text/css">
	.st0{fill:#213557;}
	.st1{fill:#FFFFFF;}
	.st2{clip-path:url(#SVGID_2_);}
	.st3{clip-path:url(#SVGID_4_);}
	.st4{clip-path:url(#SVGID_6_);}
	.st5{clip-path:url(#SVGID_8_);}
	.st6{clip-path:url(#SVGID_10_);}
	.st7{clip-path:url(#SVGID_12_);}
	.st8{fill:#F9B72E;}
	.st9{clip-path:url(#SVGID_14_);}
	.st10{clip-path:url(#SVGID_16_);}
	.st11{clip-path:url(#SVGID_18_);}
	.st12{fill:#020203;}
	.st13{clip-path:url(#SVGID_20_);}
</style>
<g>
	<g>
		<g>
			<path class="st0" d="M75.9,21.8H58v6.7h16.1v6.7H58v6.9h18.5v6.7H49.3V15h26.6V21.8L75.9,21.8z"/>
		</g>
	</g>
</g>
<g>
	<g>
		<g>
			<path class="st0" d="M95.1,14.6c5,0,9.5,1.3,13.3,3.8l-3.2,6.7c-1.8-1-3.6-2-5.7-2.5c-2.1-0.7-3.8-1-5.2-1
				c-2.5,0-3.6,0.8-3.6,2.5c0,1.1,0.6,2,1.8,2.5c1.3,0.7,2.8,1.3,4.5,1.7c1.8,0.4,3.5,1,5.3,1.7s3.2,1.8,4.5,3.2s1.8,3.4,1.8,5.6
				c0,3.2-1.3,5.7-3.8,7.7c-2.5,1.8-5.7,2.8-9.8,2.8c-2.8,0-5.6-0.4-8.4-1.4s-5.2-2.2-7.1-3.9l3.4-6.6c1.7,1.4,3.6,2.8,6,3.6
				s4.3,1.4,6.2,1.4c1.4,0,2.5-0.3,3.2-0.7c0.8-0.4,1.1-1.3,1.1-2.2c0-1-0.4-1.7-1.4-2.4c-0.8-0.7-2-1.1-3.4-1.4
				c-1.3-0.3-2.8-0.7-4.3-1.3s-2.9-1.1-4.3-1.7c-1.3-0.7-2.4-1.5-3.4-2.9c-0.8-1.4-1.3-2.9-1.3-4.8c0-3.1,1.3-5.6,3.6-7.4
				C87.7,15.5,91,14.6,95.1,14.6z"/>
		</g>
	</g>
</g>
<g>
	<g>
		<g>
			<path class="st0" d="M138.3,21.8h-16.5v7.8h15.3v6.7h-15.3v12.5h-8.7V15h25.1L138.3,21.8L138.3,21.8z"/>
		</g>
	</g>
</g>
<g>
	<g>
		<g>
			<path class="st1" d="M51.4,57.3L51,57.1l-0.7,0.7h0.4L51.4,57.3z M51.8,58.7v-0.4h-2.5V62h2.6v-0.4h-2.1v-1.3h1.9V60h-1.9v-1.3
				H51.8z"/>
		</g>
	</g>
</g>
<g>
	<g>
		<g>
			<path class="st1" d="M54.4,58.3c-1.1,0-1.9,0.9-1.9,1.9c0,1.1,0.9,1.9,1.9,1.9c0.5,0,1-0.2,1.4-0.6l-0.3-0.3
				c-0.3,0.3-0.7,0.5-1.1,0.5c-0.9,0-1.5-0.7-1.5-1.5s0.7-1.5,1.5-1.5c0.4,0,0.8,0.2,1.1,0.5l0.3-0.3C55.4,58.5,54.9,58.3,54.4,58.3
				z"/>
		</g>
	</g>
</g>
<g>
	<g>
		<g>
			<path class="st1" d="M58.2,58.3c-1.1,0-1.9,0.8-1.9,1.9c0,1.1,0.9,1.9,1.9,1.9s1.9-0.9,1.9-1.9C60.1,59.1,59.3,58.3,58.2,58.3z
				 M58.2,58.7c0.9,0,1.5,0.7,1.5,1.5s-0.7,1.5-1.5,1.5s-1.5-0.7-1.5-1.5S57.3,58.7,58.2,58.7z"/>
		</g>
	</g>
</g>
<g>
	<g>
		<g>
			<path class="st1" d="M61.3,61.7v-3.3h-0.4v3.7H63v-0.4H61.3L61.3,61.7z"/>
		</g>
	</g>
</g>
<g>
	<g>
		<g>
			<path class="st1" d="M66.2,58.7v-0.4h-2.5V62h2.6v-0.4H64v-1.3h1.9V60H64v-1.3H66.2z"/>
		</g>
	</g>
</g>
<g>
	<g>
		<g>
			<path class="st1" d="M69.7,58.3c-0.7,0-1.3,0.4-1.3,1c0,1.3,2.1,0.8,2.1,1.8c0,0.3-0.3,0.6-0.9,0.6c-0.4,0-0.9-0.2-1.2-0.5
				l-0.2,0.4c0.3,0.3,0.9,0.6,1.5,0.6c0.8,0,1.3-0.4,1.3-1c0-1.3-2.1-0.9-2.1-1.8c0-0.3,0.3-0.5,0.8-0.5c0.3,0,0.7,0.1,1,0.3
				l0.2-0.4C70.6,58.5,70.2,58.3,69.7,58.3z"/>
		</g>
	</g>
</g>
<g>
	<g>
		<g>
			<path class="st1" d="M74.9,58.3h-0.4v2.2c0,0.7-0.4,1.1-1.1,1.1s-1.1-0.4-1.1-1.1v-2.2h-0.4v2.2c0,1,0.6,1.5,1.6,1.5
				s1.5-0.6,1.5-1.5L74.9,58.3L74.9,58.3z"/>
		</g>
	</g>
</g>
<g>
	<g>
		<g>
			<path class="st1" d="M76,58.3V62h0.4v-1.2h1c0.9,0,1.5-0.5,1.5-1.3s-0.5-1.3-1.5-1.3L76,58.3L76,58.3z M76.4,58.7h0.9
				c0.7,0,1.1,0.3,1.1,0.9c0,0.6-0.4,0.9-1.1,0.9h-0.9V58.7z"/>
		</g>
	</g>
</g>
<g>
	<g>
		<g>
			<path class="st1" d="M81.6,57.3l-0.4-0.2l-0.7,0.7H81L81.6,57.3z M82.1,58.7v-0.4h-2.5V62h2.6v-0.4H80v-1.3h1.9V60H80v-1.3H82.1z
				"/>
		</g>
	</g>
</g>
<g>
	<g>
		<g>
			<path class="st1" d="M85.5,62.1H86l-0.9-1.3c0.5-0.2,0.9-0.6,0.9-1.2c0-0.8-0.5-1.3-1.5-1.3h-1.4V62h0.4v-1.2h1
				c0.1,0,0.1,0,0.3,0L85.5,62.1z M83.5,60.5v-1.7h1c0.7,0,1.1,0.3,1.1,0.9c0,0.6-0.4,0.9-1.1,0.9h-1V60.5z"/>
		</g>
	</g>
</g>
<g>
	<g>
		<g>
			<path class="st1" d="M87.3,62.1v-3.7h-0.4v3.7H87.3z"/>
		</g>
	</g>
</g>
<g>
	<g>
		<g>
			<path class="st1" d="M91,58.7v-0.4h-2.5V62h2.6v-0.4h-2.2v-1.3h1.9V60h-1.9v-1.3H91z"/>
		</g>
	</g>
</g>
<g>
	<g>
		<g>
			<path class="st1" d="M95,58.3h-0.4v2.2c0,0.7-0.4,1.1-1.1,1.1s-1.1-0.4-1.1-1.1v-2.2H92v2.2c0,1,0.6,1.5,1.6,1.5s1.5-0.6,1.5-1.5
				L95,58.3L95,58.3z"/>
		</g>
	</g>
</g>
<g>
	<g>
		<g>
			<path class="st1" d="M98.5,62.1H99l-0.9-1.3c0.5-0.2,0.9-0.6,0.9-1.2c0-0.8-0.5-1.3-1.5-1.3h-1.4V62h0.4v-1.2h1
				c0.1,0,0.1,0,0.3,0L98.5,62.1z M96.5,60.5v-1.7h1c0.7,0,1.1,0.3,1.1,0.9c0,0.6-0.4,0.9-1.1,0.9h-1V60.5z"/>
		</g>
	</g>
</g>
<g>
	<g>
		<g>
			<path class="st1" d="M102.4,58.7v-0.4H100V62h2.6v-0.4h-2.2v-1.3h1.9V60h-1.9v-1.3H102.4z"/>
		</g>
	</g>
</g>
<g>
	<g>
		<g>
			<path class="st1" d="M104.8,58.3V62h1.5c1.1,0,1.9-0.8,1.9-1.9c0-1.1-0.9-1.9-1.9-1.9h-1.5V58.3z M105.3,58.7h1.1
				c0.9,0,1.5,0.6,1.5,1.5s-0.7,1.5-1.5,1.5h-1.1V58.7z"/>
		</g>
	</g>
</g>
<g>
	<g>
		<g>
			<path class="st1" d="M111.6,58.7v-0.4h-2.5V62h2.6v-0.4h-2.2v-1.3h1.9V60h-1.9v-1.3H111.6z"/>
		</g>
	</g>
</g>
<g>
	<g>
		<g>
			<path class="st1" d="M116.4,58.7v-0.4H114V62h0.4v-1.6h1.7V60h-1.7v-1.3H116.4z"/>
		</g>
	</g>
</g>
<g>
	<g>
		<g>
			<path class="st1" d="M118.6,58.3c-1.1,0-1.9,0.8-1.9,1.9c0,1.1,0.9,1.9,1.9,1.9s1.9-0.9,1.9-1.9
				C120.6,59.1,119.7,58.3,118.6,58.3z M118.6,58.7c0.9,0,1.5,0.7,1.5,1.5s-0.7,1.5-1.5,1.5c-0.9,0-1.5-0.7-1.5-1.5
				S117.8,58.7,118.6,58.7z"/>
		</g>
	</g>
</g>
<g>
	<g>
		<g>
			<path class="st1" d="M123.8,62.1h0.5l-0.9-1.3c0.5-0.2,0.9-0.6,0.9-1.2c0-0.8-0.5-1.3-1.5-1.3h-1.4V62h0.4v-1.2h1
				c0.1,0,0.1,0,0.3,0L123.8,62.1z M121.8,60.5v-1.7h1c0.7,0,1.1,0.3,1.1,0.9c0,0.6-0.4,0.9-1.1,0.9h-1V60.5z"/>
		</g>
	</g>
</g>
<g>
	<g>
		<g>
			<path class="st1" d="M129,62.1v-3.7h-0.5l-1.4,2.7l-1.4-2.7h-0.5v3.7h0.4V59l1.3,2.7h0.3l1.4-2.7v3.1H129z"/>
		</g>
	</g>
</g>
<g>
	<g>
		<g>
			<path class="st1" d="M132.5,61.1l0.4,0.9h0.5l-1.7-3.7h-0.5l-1.7,3.7h0.5l0.4-0.9H132.5z M132.3,60.7h-1.7l0.9-1.9L132.3,60.7z"
				/>
		</g>
	</g>
</g>
<g>
	<g>
		<g>
			<path class="st1" d="M136.4,58.7v-0.4h-2.9v0.4h1.2V62h0.4v-3.3H136.4z"/>
		</g>
	</g>
</g>
<g>
	<g>
		<g>
			<path class="st1" d="M137.4,62.1v-3.7H137v3.7H137.4z"/>
		</g>
	</g>
</g>
<g>
	<g>
		<g>
			<path class="st1" d="M140.2,58.3c-1.1,0-1.9,0.8-1.9,1.9c0,1.1,0.9,1.9,1.9,1.9s1.9-0.9,1.9-1.9
				C142.1,59.1,141.2,58.3,140.2,58.3z M140.2,58.7c0.9,0,1.5,0.7,1.5,1.5s-0.7,1.5-1.5,1.5c-0.9,0-1.5-0.7-1.5-1.5
				C138.6,59.4,139.3,58.7,140.2,58.7z"/>
		</g>
	</g>
</g>
<g>
	<g>
		<g>
			<path class="st1" d="M146,62.1v-3.7h-0.4v3l-2.2-3h-0.5v3.7h0.4v-3l2.2,3H146z"/>
		</g>
	</g>
</g>
<g>
	<g>
		<g>
			<g>
				<defs>
					
						<rect id="SVGID_1_" x="0.8" y="15.5" transform="matrix(0.9991 -4.349795e-02 4.349795e-02 0.9991 -1.7074 1.0338)" width="44.2" height="48.5"/>
				</defs>
				<clipPath id="SVGID_2_">
					<use xlink:href="#SVGID_1_"  style="overflow:visible;"/>
				</clipPath>
				<g class="st2">
					<g>
						<g>
							<g>
								<g>
									<defs>
										
											<rect id="SVGID_3_" x="10.5" y="9.2" transform="matrix(0.5079 -0.8614 0.8614 0.5079 -13.1528 43.8403)" width="42.5" height="48.5"/>
									</defs>
									<clipPath id="SVGID_4_">
										<use xlink:href="#SVGID_3_"  style="overflow:visible;"/>
									</clipPath>
									<g class="st3">
										<g>
											<g>
												<g>
													<g>
														<defs>
															
																<rect id="SVGID_5_" x="10.5" y="9.2" transform="matrix(0.5079 -0.8614 0.8614 0.5079 -13.1528 43.8403)" width="42.5" height="48.5"/>
														</defs>
														<clipPath id="SVGID_6_">
															<use xlink:href="#SVGID_5_"  style="overflow:visible;"/>
														</clipPath>
														<g class="st4">
															<path class="st0" d="M43.5,60.6V17.2l0,0c0-0.8-0.4-1.6-1.2-2.1c-0.7-0.4-1.5-0.4-2.2-0.1l0,0l0,0
																c-0.1,0.1-0.2,0.1-0.4,0.2L2.4,36.4l0,0c-0.4,0.2-0.8,0.5-1,0.9c-0.7,1.1-0.3,2.6,0.8,3.3l37.6,22.2
																c1.1,0.7,2.6,0.3,3.3-0.9C43.5,61.6,43.6,61.1,43.5,60.6z"/>
														</g>
													</g>
												</g>
											</g>
										</g>
									</g>
								</g>
							</g>
						</g>
					</g>
				</g>
			</g>
		</g>
	</g>
</g>
<g>
	<g>
		<g>
			<g>
				<defs>
					
						<rect id="SVGID_7_" x="2.6" y="19.2" transform="matrix(0.9991 -4.349795e-02 4.349795e-02 0.9991 -1.3146 0.5878)" width="20.5" height="22.6"/>
				</defs>
				<clipPath id="SVGID_8_">
					<use xlink:href="#SVGID_7_"  style="overflow:visible;"/>
				</clipPath>
				<g class="st5">
					<g>
						<g>
							<g>
								<g>
									<defs>
										
											<rect id="SVGID_9_" x="7.3" y="16.4" transform="matrix(0.5079 -0.8614 0.8614 0.5079 -15.3543 28.1991)" width="19.4" height="22.2"/>
									</defs>
									<clipPath id="SVGID_10_">
										<use xlink:href="#SVGID_9_"  style="overflow:visible;"/>
									</clipPath>
									<g class="st6">
										<g>
											<g>
												<g>
													<g>
														<defs>
															
																<rect id="SVGID_11_" x="7.3" y="16.4" transform="matrix(0.5079 -0.8614 0.8614 0.5079 -15.3543 28.1991)" width="19.4" height="22.2"/>
														</defs>
														<clipPath id="SVGID_12_">
															<use xlink:href="#SVGID_11_"  style="overflow:visible;"/>
														</clipPath>
														<g class="st7">
															<path class="st8" d="M22.4,39.9V20l0,0c0-0.4-0.2-0.8-0.5-1s-0.7-0.2-1-0.1l0,0l0,0c-0.1,0-0.1,0.1-0.2,0.1L3.6,28.8
																c-0.2,0.1-0.3,0.2-0.5,0.5c-0.3,0.5-0.1,1.2,0.4,1.5L20.7,41c0.5,0.3,1.2,0.1,1.5-0.4C22.3,40.3,22.4,40.1,22.4,39.9
																z"/>
														</g>
													</g>
												</g>
											</g>
										</g>
									</g>
								</g>
							</g>
						</g>
					</g>
				</g>
			</g>
		</g>
	</g>
</g>
<g>
	<g>
		<g>
			<g>
				<defs>
					
						<rect id="SVGID_13_" x="9.5" y="25.1" transform="matrix(0.9991 -4.349795e-02 4.349795e-02 0.9991 -1.2789 0.6284)" width="8.6" height="9.2"/>
				</defs>
				<clipPath id="SVGID_14_">
					<use xlink:href="#SVGID_13_"  style="overflow:visible;"/>
				</clipPath>
				<g class="st9">
					<g>
						<g>
							<g>
								<g>
									<defs>
										
											<rect id="SVGID_15_" x="11" y="26.7" transform="matrix(0.8787 -0.4774 0.4774 0.8787 -12.7108 11.0845)" width="8.9" height="7.7"/>
									</defs>
									<clipPath id="SVGID_16_">
										<use xlink:href="#SVGID_15_"  style="overflow:visible;"/>
									</clipPath>
									<g class="st10">
										<g>
											<g>
												<g>
													<g>
														<defs>
															
																<rect id="SVGID_17_" x="11" y="26.7" transform="matrix(0.8787 -0.4774 0.4774 0.8787 -12.7108 11.0845)" width="8.9" height="7.7"/>
														</defs>
														<clipPath id="SVGID_18_">
															<use xlink:href="#SVGID_17_"  style="overflow:visible;"/>
														</clipPath>
														<g class="st11">
															<path class="st12" d="M10.1,29.8l6.8,4l0,0c0.1,0.1,0.3,0.1,0.5,0c0.1-0.1,0.2-0.2,0.2-0.3l0,0l0,0c0,0,0,0,0-0.1
																l0.2-7.8c0-0.1,0-0.2,0-0.2c-0.1-0.2-0.4-0.3-0.6-0.2l-7,3.8c-0.2,0.1-0.3,0.4-0.2,0.6C10,29.7,10,29.8,10.1,29.8z"
																/>
														</g>
													</g>
												</g>
											</g>
										</g>
									</g>
								</g>
							</g>
						</g>
					</g>
				</g>
			</g>
		</g>
	</g>
</g>
<g>
	<g>
		<g>
			<g>
				<defs>
					<rect id="SVGID_19_" x="49.3" y="53.5" width="96.7" height="2.1"/>
				</defs>
				<use xlink:href="#SVGID_19_"  style="overflow:visible;fill:#F9B72E;"/>
				<clipPath id="SVGID_20_">
					<use xlink:href="#SVGID_19_"  style="overflow:visible;"/>
				</clipPath>
				<g class="st13">
					<path class="st8" d="M49.3,53.5H146v2.1H49.3C49.3,55.5,49.3,53.5,49.3,53.5z"/>
				</g>
			</g>
		</g>
	</g>
</g>
</svg>
